<svg xmlns="http://www.w3.org/2000/svg" viewBox="0 0 640 522" font-family="Helvetica,Arial,sans-serif"><rect width="100%" height="100%" fill="#ffffff"/><text x="56" y="14" font-size="11" font-weight="600" fill="#333333">log-log · endogeneity on (ranked)</text><line x1="56" y1="30" x2="56" y2="200" stroke="#dddbd4"/><text x="56" y="214" font-size="9" text-anchor="middle" fill="#a5a39a">0.40</text><line x1="170" y1="30" x2="170" y2="200" stroke="#dddbd4"/><text x="170" y="214" font-size="9" text-anchor="middle" fill="#a5a39a">0.43</text><line x1="283" y1="30" x2="283" y2="200" stroke="#dddbd4"/><text x="283" y="214" font-size="9" text-anchor="middle" fill="#a5a39a">0.46</text><line x1="397" y1="30" x2="397" y2="200" stroke="#dddbd4"/><text x="397" y="214" font-size="9" text-anchor="middle" fill="#a5a39a">0.49</text><line x1="510" y1="30" x2="510" y2="200" stroke="#dddbd4"/><text x="510" y="214" font-size="9" text-anchor="middle" fill="#a5a39a">0.52</text><line x1="624" y1="30" x2="624" y2="200" stroke="#dddbd4"/><text x="624" y="214" font-size="9" text-anchor="middle" fill="#a5a39a">0.55</text><line x1="56" y1="200" x2="624" y2="200" stroke="#333333" stroke-width="1.2" stroke-dasharray="4 3"/><text x="60" y="195" font-size="9" fill="#a5a39a">0 = unbiased</text><text x="56" y="280" font-size="11" font-weight="600" fill="#333333">log-log · endogeneity off (control)</text><line x1="56" y1="296" x2="56" y2="466" stroke="#dddbd4"/><text x="56" y="480" font-size="9" text-anchor="middle" fill="#a5a39a">0.40</text><line x1="170" y1="296" x2="170" y2="466" stroke="#dddbd4"/><text x="170" y="480" font-size="9" text-anchor="middle" fill="#a5a39a">0.43</text><line x1="283" y1="296" x2="283" y2="466" stroke="#dddbd4"/><text x="283" y="480" font-size="9" text-anchor="middle" fill="#a5a39a">0.46</text><line x1="397" y1="296" x2="397" y2="466" stroke="#dddbd4"/><text x="397" y="480" font-size="9" text-anchor="middle" fill="#a5a39a">0.49</text><line x1="510" y1="296" x2="510" y2="466" stroke="#dddbd4"/><text x="510" y="480" font-size="9" text-anchor="middle" fill="#a5a39a">0.52</text><line x1="624" y1="296" x2="624" y2="466" stroke="#dddbd4"/><text x="624" y="480" font-size="9" text-anchor="middle" fill="#a5a39a">0.55</text><line x1="56" y1="466" x2="624" y2="466" stroke="#333333" stroke-width="1.2" stroke-dasharray="4 3"/><text x="60" y="461" font-size="9" fill="#a5a39a">0 = unbiased</text><text x="320.0" y="253.0" font-size="13" text-anchor="middle" fill="#a5a39a">no verified entries yet</text><text x="340.0" y="502" font-size="10" text-anchor="middle" fill="#333333">L1 forecast WMAPE (lower = better fit); vertical axis: |own-price WMPE| (0 = unbiased)</text></svg>