<svg xmlns="http://www.w3.org/2000/svg" viewBox="0 0 660 660" font-family="Avenir Next,Segoe UI,Helvetica,Arial,sans-serif"><rect width="100%" height="100%" fill="#ffffff"/><text x="24" y="18" font-size="12.5" font-weight="600" fill="#52514e" letter-spacing=".02em">endogeneity on — the arena (ranked)</text><line x1="183.2" y1="42" x2="183.2" y2="280" stroke="#e5e3dc"/><text x="183.2" y="296" font-size="10" text-anchor="middle" fill="#52514e">0.45</text><line x1="262.6" y1="42" x2="262.6" y2="280" stroke="#e5e3dc"/><text x="262.6" y="296" font-size="10" text-anchor="middle" fill="#52514e">0.46</text><line x1="342.1" y1="42" x2="342.1" y2="280" stroke="#e5e3dc"/><text x="342.1" y="296" font-size="10" text-anchor="middle" fill="#52514e">0.47</text><line x1="421.5" y1="42" x2="421.5" y2="280" stroke="#e5e3dc"/><text x="421.5" y="296" font-size="10" text-anchor="middle" fill="#52514e">0.48</text><line x1="501.0" y1="42" x2="501.0" y2="280" stroke="#e5e3dc"/><text x="501.0" y="296" font-size="10" text-anchor="middle" fill="#52514e">0.49</text><line x1="580.4" y1="42" x2="580.4" y2="280" stroke="#e5e3dc"/><text x="580.4" y="296" font-size="10" text-anchor="middle" fill="#52514e">0.50</text><line x1="64" y1="233.3" x2="644" y2="233.3" stroke="#e5e3dc"/><text x="56" y="236.3" font-size="10" text-anchor="end" fill="#52514e">0.05</text><line x1="64" y1="186.7" x2="644" y2="186.7" stroke="#e5e3dc"/><text x="56" y="189.7" font-size="10" text-anchor="end" fill="#52514e">0.10</text><line x1="64" y1="140.0" x2="644" y2="140.0" stroke="#e5e3dc"/><text x="56" y="143.0" font-size="10" text-anchor="end" fill="#52514e">0.15</text><line x1="64" y1="93.3" x2="644" y2="93.3" stroke="#e5e3dc"/><text x="56" y="96.3" font-size="10" text-anchor="end" fill="#52514e">0.20</text><line x1="64" y1="46.7" x2="644" y2="46.7" stroke="#e5e3dc"/><text x="56" y="49.7" font-size="10" text-anchor="end" fill="#52514e">0.25</text><line x1="64" y1="280.0" x2="644" y2="280.0" stroke="#8a887e" stroke-width="1.5" stroke-dasharray="4 3"/><text x="68" y="274.0" font-size="10" fill="#52514e">0 = unbiased</text><text x="354.0" y="320" font-size="11.5" text-anchor="middle" fill="#52514e">L1 forecast WMAPE — lower = fits observed sales better</text><text transform="rotate(-90 14 161)" x="14" y="161" font-size="11.5" text-anchor="middle" fill="#52514e">|own-price WMPE| — 0 = unbiased</text><text x="354.0" y="161.0" font-size="13" text-anchor="middle" fill="#a5a39a">no verified entries yet</text><text x="24" y="352" font-size="12.5" font-weight="600" fill="#52514e" letter-spacing=".02em">endogeneity off — the control</text><line x1="183.2" y1="376" x2="183.2" y2="614" stroke="#e5e3dc"/><text x="183.2" y="630" font-size="10" text-anchor="middle" fill="#52514e">0.45</text><line x1="262.6" y1="376" x2="262.6" y2="614" stroke="#e5e3dc"/><text x="262.6" y="630" font-size="10" text-anchor="middle" fill="#52514e">0.46</text><line x1="342.1" y1="376" x2="342.1" y2="614" stroke="#e5e3dc"/><text x="342.1" y="630" font-size="10" text-anchor="middle" fill="#52514e">0.47</text><line x1="421.5" y1="376" x2="421.5" y2="614" stroke="#e5e3dc"/><text x="421.5" y="630" font-size="10" text-anchor="middle" fill="#52514e">0.48</text><line x1="501.0" y1="376" x2="501.0" y2="614" stroke="#e5e3dc"/><text x="501.0" y="630" font-size="10" text-anchor="middle" fill="#52514e">0.49</text><line x1="580.4" y1="376" x2="580.4" y2="614" stroke="#e5e3dc"/><text x="580.4" y="630" font-size="10" text-anchor="middle" fill="#52514e">0.50</text><line x1="64" y1="567.3" x2="644" y2="567.3" stroke="#e5e3dc"/><text x="56" y="570.3" font-size="10" text-anchor="end" fill="#52514e">0.05</text><line x1="64" y1="520.7" x2="644" y2="520.7" stroke="#e5e3dc"/><text x="56" y="523.7" font-size="10" text-anchor="end" fill="#52514e">0.10</text><line x1="64" y1="474.0" x2="644" y2="474.0" stroke="#e5e3dc"/><text x="56" y="477.0" font-size="10" text-anchor="end" fill="#52514e">0.15</text><line x1="64" y1="427.3" x2="644" y2="427.3" stroke="#e5e3dc"/><text x="56" y="430.3" font-size="10" text-anchor="end" fill="#52514e">0.20</text><line x1="64" y1="380.7" x2="644" y2="380.7" stroke="#e5e3dc"/><text x="56" y="383.7" font-size="10" text-anchor="end" fill="#52514e">0.25</text><line x1="64" y1="614.0" x2="644" y2="614.0" stroke="#8a887e" stroke-width="1.5" stroke-dasharray="4 3"/><text x="68" y="608.0" font-size="10" fill="#52514e">0 = unbiased</text><text x="354.0" y="654" font-size="11.5" text-anchor="middle" fill="#52514e">L1 forecast WMAPE — lower = fits observed sales better</text><text transform="rotate(-90 14 495)" x="14" y="495" font-size="11.5" text-anchor="middle" fill="#52514e">|own-price WMPE| — 0 = unbiased</text><text x="354.0" y="495.0" font-size="13" text-anchor="middle" fill="#a5a39a">no verified entries yet</text></svg>